<svg xmlns="http://www.w3.org/2000/svg" xmlns:xlink="http://www.w3.org/1999/xlink" width="1920" height="1080" viewBox="0 0 1920 1080">
  <defs>
    <filter id="Rectangle_1" x="-7.5" y="-4.5" width="1935" height="103" filterUnits="userSpaceOnUse">
      <feOffset dy="3" input="SourceAlpha"/>
      <feGaussianBlur stdDeviation="2.5" result="blur"/>
      <feFlood flood-color="#a5a5a5"/>
      <feComposite operator="in" in2="blur"/>
      <feComposite in="SourceGraphic"/>
    </filter>
    <filter id="G" x="35" y="8" width="66" height="93" filterUnits="userSpaceOnUse">
      <feOffset dy="10" input="SourceAlpha"/>
      <feGaussianBlur stdDeviation="5" result="blur-2"/>
      <feFlood flood-color="#751a95"/>
      <feComposite operator="in" in2="blur-2"/>
      <feComposite in="SourceGraphic"/>
    </filter>
    <filter id="_" x="58.987" y="13.459" width="62.84" height="77.145" filterUnits="userSpaceOnUse">
      <feOffset dy="10" input="SourceAlpha"/>
      <feGaussianBlur stdDeviation="5" result="blur-3"/>
      <feFlood flood-color="#751a95"/>
      <feComposite operator="in" in2="blur-3"/>
      <feComposite in="SourceGraphic"/>
    </filter>
    <filter id="Rectangle_3" x="44" y="55" width="48" height="31" filterUnits="userSpaceOnUse">
      <feOffset dy="10" input="SourceAlpha"/>
      <feGaussianBlur stdDeviation="5" result="blur-4"/>
      <feFlood flood-color="#751a95"/>
      <feComposite operator="in" in2="blur-4"/>
      <feComposite in="SourceGraphic"/>
    </filter>
    <filter id="Language" x="1546" y="14" width="136" height="62" filterUnits="userSpaceOnUse">
      <feOffset input="SourceAlpha"/>
      <feGaussianBlur stdDeviation="5" result="blur-5"/>
      <feFlood flood-color="#bf4cfb"/>
      <feComposite operator="in" in2="blur-5"/>
      <feComposite in="SourceGraphic"/>
    </filter>
    <clipPath id="clip-Language-2">
      <rect width="1920" height="1080"/>
    </clipPath>
  </defs>
  <g id="Language-2" data-name="Language" clip-path="url(#clip-Language-2)">
    <rect width="1920" height="1080" fill="#fff"/>
    <g transform="matrix(1, 0, 0, 1, 0, 0)" filter="url(#Rectangle_1)">
      <rect id="Rectangle_1-2" data-name="Rectangle 1" width="1920" height="88" fill="#fff"/>
    </g>
    <g id="Group_1" data-name="Group 1" transform="translate(-599 59)">
      <g transform="matrix(1, 0, 0, 1, 599, -59)" filter="url(#G)">
        <text id="G-2" data-name="G" transform="translate(50 60)" fill="#9d4edd" font-size="45" font-family="Poppins-Regular, Poppins"><tspan x="0" y="0">G</tspan></text>
      </g>
      <g transform="matrix(1, 0, 0, 1, 599, -59)" filter="url(#_)">
        <text id="_2" data-name="?" transform="matrix(0.92, 0.39, -0.39, 0.92, 78.28, 48.84)" fill="#9d4edd" font-size="31" font-family="Poppins-Regular, Poppins"><tspan x="0" y="0">?</tspan></text>
      </g>
      <g transform="matrix(1, 0, 0, 1, 599, -59)" filter="url(#Rectangle_3)">
        <rect id="Rectangle_3-2" data-name="Rectangle 3" width="18" height="1" rx="0.5" transform="translate(59 60)" fill="#9d4edd"/>
      </g>
    </g>
    <text id="Home" transform="translate(1037 54)" fill="#1d1d1d" font-size="24" font-family="Roboto-Regular, Roboto"><tspan x="0" y="0">Home</tspan></text>
    <text id="Leaderboard" transform="translate(1346 54)" fill="#1d1d1d" font-size="24" font-family="Roboto-Regular, Roboto"><tspan x="0" y="0">Leaderboard</tspan></text>
    <text id="Session" transform="translate(1182 54)" fill="#1d1d1d" font-size="24" font-family="Roboto-Regular, Roboto"><tspan x="0" y="0">Session</tspan></text>
    <text id="Samuel" transform="translate(1781 54)" fill="#1d1d1d" font-size="24" font-family="Roboto-Regular, Roboto"><tspan x="0" y="0">Samuel</tspan></text>
    <g id="Rectangle_55" data-name="Rectangle 55" transform="translate(1671 37)" fill="#fff" stroke="#707070" stroke-width="1">
      <rect width="238" height="145" stroke="none"/>
      <rect x="0.5" y="0.5" width="237" height="144" fill="none"/>
    </g>
    <g id="Group_414" data-name="Group 414">
      <g transform="matrix(1, 0, 0, 1, 0, 0)" filter="url(#Language)">
        <text id="Language-3" data-name="Language" transform="translate(1561 54)" fill="#1d1d1d" font-size="24" font-family="Roboto-Regular, Roboto"><tspan x="0" y="0">Language</tspan></text>
      </g>
      <g id="Group_16" data-name="Group 16" transform="translate(2239.387 611.37) rotate(180)">
        <rect id="Rectangle_11" data-name="Rectangle 11" width="4.231" height="18.736" rx="2.115" transform="translate(534.13 556.121) rotate(-45)" fill="#1d1d1d"/>
        <rect id="Rectangle_12" data-name="Rectangle 12" width="4.231" height="18.736" rx="2.115" transform="translate(557.653 553.13) rotate(45)" fill="#1d1d1d"/>
      </g>
    </g>
    <text id="French" transform="translate(1679 145)" fill="#1d1d1d" font-size="24" font-family="Roboto-Regular, Roboto"><tspan x="0" y="0">French</tspan></text>
    <text id="English" transform="translate(1679 100)" fill="#1d1d1d" font-size="24" font-family="Roboto-Regular, Roboto"><tspan x="0" y="0">English</tspan></text>
  </g>
</svg>
