<svg xmlns="http://www.w3.org/2000/svg" xmlns:xlink="http://www.w3.org/1999/xlink" width="1920" height="1080" viewBox="0 0 1920 1080">
  <defs>
    <filter id="Rectangle_1" x="-7.5" y="-4.5" width="1935" height="103" filterUnits="userSpaceOnUse">
      <feOffset dy="3" input="SourceAlpha"/>
      <feGaussianBlur stdDeviation="2.5" result="blur"/>
      <feFlood flood-color="#a5a5a5"/>
      <feComposite operator="in" in2="blur"/>
      <feComposite in="SourceGraphic"/>
    </filter>
    <filter id="G" x="35" y="8" width="66" height="93" filterUnits="userSpaceOnUse">
      <feOffset dy="10" input="SourceAlpha"/>
      <feGaussianBlur stdDeviation="5" result="blur-2"/>
      <feFlood flood-color="#751a95"/>
      <feComposite operator="in" in2="blur-2"/>
      <feComposite in="SourceGraphic"/>
    </filter>
    <filter id="_" x="58.987" y="13.458" width="62.841" height="77.145" filterUnits="userSpaceOnUse">
      <feOffset dy="10" input="SourceAlpha"/>
      <feGaussianBlur stdDeviation="5" result="blur-3"/>
      <feFlood flood-color="#751a95"/>
      <feComposite operator="in" in2="blur-3"/>
      <feComposite in="SourceGraphic"/>
    </filter>
    <filter id="Rectangle_3" x="44" y="55" width="48" height="31" filterUnits="userSpaceOnUse">
      <feOffset dy="10" input="SourceAlpha"/>
      <feGaussianBlur stdDeviation="5" result="blur-4"/>
      <feFlood flood-color="#751a95"/>
      <feComposite operator="in" in2="blur-4"/>
      <feComposite in="SourceGraphic"/>
    </filter>
    <filter id="Rectangle_7" x="759.5" y="238.5" width="402" height="610" filterUnits="userSpaceOnUse">
      <feOffset dy="3" input="SourceAlpha"/>
      <feGaussianBlur stdDeviation="1.5" result="blur-5"/>
      <feFlood flood-color="#9d4edd"/>
      <feComposite operator="in" in2="blur-5"/>
      <feComposite in="SourceGraphic"/>
    </filter>
    <filter id="G-2" x="903.959" y="251.448" width="80" height="119" filterUnits="userSpaceOnUse">
      <feOffset dy="10" input="SourceAlpha"/>
      <feGaussianBlur stdDeviation="5" result="blur-6"/>
      <feFlood flood-color="#751a95"/>
      <feComposite operator="in" in2="blur-6"/>
      <feComposite in="SourceGraphic"/>
    </filter>
    <filter id="_2" x="940.603" y="259.465" width="75.927" height="95.528" filterUnits="userSpaceOnUse">
      <feOffset dy="10" input="SourceAlpha"/>
      <feGaussianBlur stdDeviation="5" result="blur-7"/>
      <feFlood flood-color="#751a95"/>
      <feComposite operator="in" in2="blur-7"/>
      <feComposite in="SourceGraphic"/>
    </filter>
    <filter id="Rectangle_3-2" x="917.118" y="320.53" width="56.317" height="31.645" filterUnits="userSpaceOnUse">
      <feOffset dy="10" input="SourceAlpha"/>
      <feGaussianBlur stdDeviation="5" result="blur-8"/>
      <feFlood flood-color="#751a95"/>
      <feComposite operator="in" in2="blur-8"/>
      <feComposite in="SourceGraphic"/>
    </filter>
    <filter id="Rectangle_8" x="810.5" y="469.5" width="295" height="46" filterUnits="userSpaceOnUse">
      <feOffset dy="5" input="SourceAlpha"/>
      <feGaussianBlur stdDeviation="2.5" result="blur-9"/>
      <feFlood flood-color="#9d4edd"/>
      <feComposite operator="in" in2="blur-9"/>
      <feComposite in="SourceGraphic"/>
    </filter>
    <filter id="Rectangle_9" x="810.5" y="567.5" width="295" height="46" filterUnits="userSpaceOnUse">
      <feOffset dy="5" input="SourceAlpha"/>
      <feGaussianBlur stdDeviation="2.5" result="blur-10"/>
      <feFlood flood-color="#9d4edd"/>
      <feComposite operator="in" in2="blur-10"/>
      <feComposite in="SourceGraphic"/>
    </filter>
    <filter id="Rectangle_10" x="870" y="789" width="181" height="36" filterUnits="userSpaceOnUse">
      <feOffset dy="10" input="SourceAlpha"/>
      <feGaussianBlur stdDeviation="5" result="blur-11"/>
      <feFlood flood-color="#9d4edd"/>
      <feComposite operator="in" in2="blur-11"/>
      <feComposite in="SourceGraphic"/>
    </filter>
    <clipPath id="clip-Login">
      <rect width="1920" height="1080"/>
    </clipPath>
  </defs>
  <g id="Login" clip-path="url(#clip-Login)">
    <rect width="1920" height="1080" fill="#fff"/>
    <g transform="matrix(1, 0, 0, 1, 0, 0)" filter="url(#Rectangle_1)">
      <rect id="Rectangle_1-2" data-name="Rectangle 1" width="1920" height="88" fill="#fff"/>
    </g>
    <g id="Group_1" data-name="Group 1" transform="translate(-599 59)">
      <g transform="matrix(1, 0, 0, 1, 599, -59)" filter="url(#G)">
        <text id="G-3" data-name="G" transform="translate(50 60)" fill="#9d4edd" font-size="45" font-family="Poppins-Regular, Poppins"><tspan x="0" y="0">G</tspan></text>
      </g>
      <g transform="matrix(1, 0, 0, 1, 599, -59)" filter="url(#_)">
        <text id="_3" data-name="?" transform="matrix(0.92, 0.39, -0.39, 0.92, 78.28, 48.84)" fill="#9d4edd" font-size="31" font-family="Poppins-Regular, Poppins"><tspan x="0" y="0">?</tspan></text>
      </g>
      <g transform="matrix(1, 0, 0, 1, 599, -59)" filter="url(#Rectangle_3)">
        <rect id="Rectangle_3-3" data-name="Rectangle 3" width="18" height="1" rx="0.5" transform="translate(59 60)" fill="#9d4edd"/>
      </g>
    </g>
    <g transform="matrix(1, 0, 0, 1, 0, 0)" filter="url(#Rectangle_7)">
      <g id="Rectangle_7-2" data-name="Rectangle 7" transform="translate(764 240)" fill="#fff" stroke="#9d4edd" stroke-width="1">
        <rect width="393" height="601" rx="25" stroke="none"/>
        <rect x="0.5" y="0.5" width="392" height="600" rx="24.5" fill="none"/>
      </g>
    </g>
    <text id="Login-2" data-name="Login" transform="translate(913 387)" fill="#9d4edd" font-size="37" font-family="Roboto-Regular, Roboto"><tspan x="0" y="0">Login</tspan></text>
    <g id="Group_3" data-name="Group 3" transform="translate(918.959 256.448)">
      <g transform="matrix(1, 0, 0, 1, -918.96, -256.45)" filter="url(#G-2)">
        <text id="G-4" data-name="G" transform="translate(918.96 323.45)" fill="#9d4edd" font-size="64" font-family="Poppins-Regular, Poppins"><tspan x="0" y="0">G</tspan></text>
      </g>
      <g transform="matrix(1, 0, 0, 1, -918.96, -256.45)" filter="url(#_2)">
        <text id="_4" data-name="?" transform="matrix(0.92, 0.39, -0.39, 0.92, 961.46, 306.81)" fill="#9d4edd" font-size="44" font-family="Poppins-Regular, Poppins"><tspan x="0" y="0">?</tspan></text>
      </g>
      <g transform="matrix(1, 0, 0, 1, -918.96, -256.45)" filter="url(#Rectangle_3-2)">
        <rect id="Rectangle_3-4" data-name="Rectangle 3" width="26.317" height="1.645" rx="0.822" transform="translate(932.12 325.53)" fill="#9d4edd"/>
      </g>
    </g>
    <text id="Email_:" data-name="Email :" transform="translate(818 452)" fill="#1d1d1d" font-size="21" font-family="Roboto-Regular, Roboto"><tspan x="0" y="0">Email :</tspan></text>
    <text id="Password_:" data-name="Password :" transform="translate(818 550)" fill="#1d1d1d" font-size="20" font-family="Roboto-Regular, Roboto"><tspan x="0" y="0">Password :</tspan></text>
    <g transform="matrix(1, 0, 0, 1, 0, 0)" filter="url(#Rectangle_8)">
      <g id="Rectangle_8-2" data-name="Rectangle 8" transform="translate(818 472)" fill="#fff" stroke="#9d4edd" stroke-width="1">
        <rect width="280" height="31" rx="10" stroke="none"/>
        <rect x="0.5" y="0.5" width="279" height="30" rx="9.5" fill="none"/>
      </g>
    </g>
    <g transform="matrix(1, 0, 0, 1, 0, 0)" filter="url(#Rectangle_9)">
      <g id="Rectangle_9-2" data-name="Rectangle 9" transform="translate(818 570)" fill="#fff" stroke="#9d4edd" stroke-width="1">
        <rect width="280" height="31" rx="10" stroke="none"/>
        <rect x="0.5" y="0.5" width="279" height="30" rx="9.5" fill="none"/>
      </g>
    </g>
    <text id="Sign_Up" data-name="Sign Up" transform="translate(1012 643)" fill="#1d1d1d" font-size="20" font-family="Roboto-Regular, Roboto"><tspan x="0" y="0">Sign Up</tspan></text>
    <g transform="matrix(1, 0, 0, 1, 0, 0)" filter="url(#Rectangle_10)">
      <rect id="Rectangle_10-2" data-name="Rectangle 10" width="151" height="6" rx="3" transform="translate(885 794)" fill="#9d4edd"/>
    </g>
    <g id="Group_354" data-name="Group 354" transform="translate(881.972 667.514)">
      <rect id="Rectangle_34" data-name="Rectangle 34" width="157" height="53" rx="16" transform="translate(0.028 0.486)" fill="#9d4edd"/>
      <text id="Login-3" data-name="Login" transform="translate(53.028 33.486)" fill="#fff" font-size="21" font-family="Roboto-Regular, Roboto"><tspan x="0" y="0">Login</tspan></text>
    </g>
  </g>
</svg>
