<svg xmlns="http://www.w3.org/2000/svg" xmlns:xlink="http://www.w3.org/1999/xlink" width="360" height="800" viewBox="0 0 360 800">
  <defs>
    <filter id="Rectangle_1" x="-7.5" y="-4.5" width="375" height="74" filterUnits="userSpaceOnUse">
      <feOffset dy="3" input="SourceAlpha"/>
      <feGaussianBlur stdDeviation="2.5" result="blur"/>
      <feFlood flood-color="#a5a5a5"/>
      <feComposite operator="in" in2="blur"/>
      <feComposite in="SourceGraphic"/>
    </filter>
    <filter id="G" x="5" y="-3.5" width="62" height="86" filterUnits="userSpaceOnUse">
      <feOffset dy="10" input="SourceAlpha"/>
      <feGaussianBlur stdDeviation="5" result="blur-2"/>
      <feFlood flood-color="#751a95"/>
      <feComposite operator="in" in2="blur-2"/>
      <feComposite in="SourceGraphic"/>
    </filter>
    <filter id="_" x="26.14" y="1.374" width="60.357" height="73.072" filterUnits="userSpaceOnUse">
      <feOffset dy="10" input="SourceAlpha"/>
      <feGaussianBlur stdDeviation="5" result="blur-3"/>
      <feFlood flood-color="#751a95"/>
      <feComposite operator="in" in2="blur-3"/>
      <feComposite in="SourceGraphic"/>
    </filter>
    <filter id="Rectangle_3" x="13" y="38.5" width="46" height="31" filterUnits="userSpaceOnUse">
      <feOffset dy="10" input="SourceAlpha"/>
      <feGaussianBlur stdDeviation="5" result="blur-4"/>
      <feFlood flood-color="#751a95"/>
      <feComposite operator="in" in2="blur-4"/>
      <feComposite in="SourceGraphic"/>
    </filter>
    <filter id="Rectangle_19" x="-9" y="55" width="378" height="266" filterUnits="userSpaceOnUse">
      <feOffset dy="5" input="SourceAlpha"/>
      <feGaussianBlur stdDeviation="3" result="blur-5"/>
      <feFlood flood-opacity="0.161"/>
      <feComposite operator="in" in2="blur-5"/>
      <feComposite in="SourceGraphic"/>
    </filter>
    <clipPath id="clip-Menu">
      <rect width="360" height="800"/>
    </clipPath>
  </defs>
  <g id="Menu" clip-path="url(#clip-Menu)">
    <rect width="360" height="800" fill="#fff"/>
    <g transform="matrix(1, 0, 0, 1, 0, 0)" filter="url(#Rectangle_1)">
      <rect id="Rectangle_1-2" data-name="Rectangle 1" width="360" height="59" fill="#fff"/>
    </g>
    <g id="Group_1" data-name="Group 1" transform="translate(-629 47.5)">
      <g transform="matrix(1, 0, 0, 1, 629, -47.5)" filter="url(#G)">
        <text id="G-2" data-name="G" transform="translate(20 43.5)" fill="#9d4edd" font-size="40" font-family="Poppins-Regular, Poppins"><tspan x="0" y="0">G</tspan></text>
      </g>
      <g transform="matrix(1, 0, 0, 1, 629, -47.5)" filter="url(#_)">
        <text id="_2" data-name="?" transform="matrix(0.92, 0.39, -0.39, 0.92, 45.05, 33.99)" fill="#9d4edd" font-size="29" font-family="Poppins-Regular, Poppins"><tspan x="0" y="0">?</tspan></text>
      </g>
      <g transform="matrix(1, 0, 0, 1, 629, -47.5)" filter="url(#Rectangle_3)">
        <rect id="Rectangle_3-2" data-name="Rectangle 3" width="16" height="1" rx="0.5" transform="translate(28 43.5)" fill="#9d4edd"/>
      </g>
    </g>
    <g id="Group_7" data-name="Group 7" transform="translate(111.849 -392.5)">
      <rect id="Rectangle_4" data-name="Rectangle 4" width="38" height="4" rx="2" transform="translate(198.151 434.021) rotate(-45)" fill="#9d4edd"/>
      <rect id="Rectangle_6" data-name="Rectangle 6" width="38" height="4" rx="2" transform="translate(200.979 407.151) rotate(45)" fill="#9d4edd"/>
    </g>
    <g transform="matrix(1, 0, 0, 1, 0, 0)" filter="url(#Rectangle_19)">
      <rect id="Rectangle_19-2" data-name="Rectangle 19" width="360" height="248" transform="translate(0 59)" fill="#fff"/>
    </g>
    <text id="Home" transform="translate(20 93)" fill="#1d1d1d" font-size="15" font-family="Roboto-Regular, Roboto"><tspan x="0" y="0">Home</tspan></text>
    <text id="Leaderboard" transform="translate(20 165)" fill="#1d1d1d" font-size="15" font-family="Roboto-Regular, Roboto"><tspan x="0" y="0">Leaderboard</tspan></text>
    <text id="Session" transform="translate(20 129)" fill="#1d1d1d" font-size="15" font-family="Roboto-Regular, Roboto"><tspan x="0" y="0">Session</tspan></text>
    <text id="Samuel" transform="translate(20 237)" fill="#1d1d1d" font-size="15" font-family="Roboto-Regular, Roboto"><tspan x="0" y="0">Samuel</tspan></text>
    <g id="Group_393" data-name="Group 393">
      <text id="Language" transform="translate(20 201)" fill="#1d1d1d" font-size="15" font-family="Roboto-Regular, Roboto"><tspan x="0" y="0">Language</tspan></text>
      <g id="Group_16" data-name="Group 16" transform="translate(-442 -359.37)">
        <rect id="Rectangle_11" data-name="Rectangle 11" width="2.164" height="9.583" rx="1.082" transform="translate(534.13 554.66) rotate(-45)" fill="#1d1d1d"/>
        <rect id="Rectangle_12" data-name="Rectangle 12" width="2.164" height="9.583" rx="1.082" transform="translate(546.161 553.13) rotate(45)" fill="#1d1d1d"/>
      </g>
    </g>
  </g>
</svg>
